<svg id="Слой_1" data-name="Слой 1" xmlns="http://www.w3.org/2000/svg" viewBox="0 0 292.68 100.31"><defs><style>.cls-1{fill:#fff;}</style></defs><title>bm_logo</title><polygon class="cls-1" points="0 0 0 71.33 19.84 71.33 19.84 54.76 16.47 54.76 16.47 16.57 54.3 16.57 54.3 54.76 32.74 54.76 19.84 71.33 70.76 71.33 70.76 0 0 0"/><path class="cls-1" d="M284.66,71.33V49.22h8V41.3H267.5v7.92h8.06V71.33Zm-24.54,0V63.41H246.43V60.12h13.38V52.2H246.43v-3h13.69V41.3H237.34v30Zm-29.36,0L218.92,55.26l11.35-14H219.15l-7.88,11.26V41.3h-9.1v30h9.1V63l1.66-2.25,6.76,10.58ZM182.27,54h-5.76V49.22h5.76c1.53,0,2.75.77,2.75,2.39S183.8,54,182.27,54m-5.76,17.38V61.88h6.93c7,0,10.81-4.69,10.81-10.27S190.47,41.3,183.44,41.3h-16v30ZM147,59.89h-5.94l3-9.67Zm13.82,11.44-11.08-30H138.33l-11.08,30h10.31l1.08-3.51h10.81l1.08,3.51Zm-40.16,0v-30H108.12l-5.27,14.41L97.58,41.3H85v30h9.09v-18l6.71,18h4.06l6.7-18v18Z"/><path class="cls-1" d="M277.59,31.07a14.19,14.19,0,0,0,13.65-8.78l-7.84-3.6a6.37,6.37,0,0,1-5.81,4.36,7.17,7.17,0,0,1-7.29-7.52A7.18,7.18,0,0,1,277.59,8a6.38,6.38,0,0,1,5.81,4.37l7.84-3.65C289.43,4.59,285.47,0,277.59,0c-9.41,0-16.52,6.26-16.52,15.53s7.11,15.54,16.52,15.54m-23.91-.54V22.6H240V19.32h13.37V11.39H240v-3h13.68V.49H230.9v30Zm-32.59,0V.49H212V11.12H201.23V.49h-9.1v30h9.1V19.05H212V30.53ZM170,31.07c7.8,0,13.51-3.65,13.51-9,0-4.14-3.78-6.66-7.11-7,3.83-.63,6.62-3.47,6.62-6.66,0-5-4.68-8.34-13-8.34-5.85,0-10.4,2-13.06,5l4.28,5.67a13,13,0,0,1,7.79-2.61c2.84,0,4.91.54,4.91,1.93,0,.95-1.71,1.49-4.59,1.49h-6.17V19.4h6.17c4.23,0,5.08.59,5.08,1.63s-1.62,2-4.81,2c-2.3,0-6.26-.85-8.6-2.88l-4.46,6.21c2.52,2.71,7.47,4.69,13.41,4.69m-41.51-.54,11.08-17v17h9.09V.49h-9.36l-10.45,16V.49h-9.09v30Zm-28.14-11.8c1.26,0,2.25.63,2.25,1.94s-1,1.93-2.25,1.93H94.11V18.73ZM85,.49v30H101.5c6.75,0,10.35-4.51,10.35-9.91s-3.6-9.81-10.35-9.81H94.11V8.42h15.94V.49Z"/><path class="cls-1" d="M7.87,100.07l-4-5.31L2.82,96v4.08H0V86.81H2.82v5.92l4.69-5.92H11L5.72,93l5.63,7Z"/><path class="cls-1" d="M11.44,99.35l1.07-2.26a2.86,2.86,0,0,0,1.71.71c1,0,1.41-.4,1.93-1.37l-4.89-9.62h3.2l3.28,7,3.3-7h3.19L18.77,97.52a4.44,4.44,0,0,1-4.33,2.79A4.77,4.77,0,0,1,11.44,99.35Z"/><path class="cls-1" d="M34.56,100.07V89.3H28.3v10.77H25.47V86.81H37.4v13.26Z"/><path class="cls-1" d="M40,100.07V86.81h2.82v8.57L49,86.81h2.91v13.26H49.05V91.18l-6.32,8.89Z"/><path class="cls-1" d="M69.28,86.81V89.3H62.42v2.34h3.44a4.22,4.22,0,1,1,0,8.43H59.6V86.81Zm-6.86,7.32v3.45h3.06a1.73,1.73,0,1,0,0-3.45Z"/><path class="cls-1" d="M72,100.07V86.81h2.82v8.57L81,86.81h2.9v13.26H81.05V91.18l-6.32,8.89Z"/><path class="cls-1" d="M85.59,98.18l1.47-1.89a5.77,5.77,0,0,0,3.88,1.51c1.74,0,2.76-.69,2.76-1.69s-.94-1.53-2.92-1.53H88.09V92.1h2.69c1.57,0,2.7-.44,2.7-1.41s-1.19-1.57-2.7-1.57a5.27,5.27,0,0,0-3.6,1.37l-1.41-1.77a7,7,0,0,1,5.29-2.11c3.1,0,5.24,1.39,5.24,3.6a3.25,3.25,0,0,1-2.88,3,3.32,3.32,0,0,1,3.08,3.18c0,2.29-2.28,3.9-5.44,3.9A7.19,7.19,0,0,1,85.59,98.18Z"/><path class="cls-1" d="M107.72,100.07V94.5h-6.26v5.57H98.63V86.81h2.83V92h6.26V86.81h2.84v13.26Z"/><path class="cls-1" d="M113.17,100.07V86.81h9.38V89.3H116v2.8h6.42v2.48H116v3h6.56v2.49Z"/><path class="cls-1" d="M124.13,93.45a6.74,6.74,0,0,1,7.05-6.86,6.07,6.07,0,0,1,5.55,3.24L134.3,91a3.56,3.56,0,0,0-3.12-1.93,4.35,4.35,0,0,0,0,8.7,3.53,3.53,0,0,0,3.12-1.92l2.43,1.17a6.11,6.11,0,0,1-5.55,3.26A6.74,6.74,0,0,1,124.13,93.45Z"/><path class="cls-1" d="M142.8,96.33V94.19h4.77v2.14Z"/><path class="cls-1" d="M153.26,100.07l5.61-7-5.27-6.22h3.48l4.21,5.33V86.81h2.84v5.33l4.2-5.33h3.49L166.56,93l5.6,7H168.7l-4-5.31-.56.68v4.63h-2.84V95.44l-.56-.68-4,5.31Z"/><path class="cls-1" d="M173.48,100.07V86.81h2.83v8.57l6.14-8.57h2.9v13.26h-2.82V91.18l-6.32,8.89Z"/><path class="cls-1" d="M188,100.07V86.81h7c2.52,0,3.81,1.61,3.81,3.38a2.94,2.94,0,0,1-2.28,3A3.21,3.21,0,0,1,199,96.49a3.49,3.49,0,0,1-3.85,3.58Zm7.91-9.38a1.42,1.42,0,0,0-1.55-1.45H190.8v2.88h3.54A1.41,1.41,0,0,0,195.89,90.69Zm.26,5.4a1.55,1.55,0,0,0-1.71-1.55H190.8v3.08h3.64C195.51,97.62,196.15,97.05,196.15,96.09Z"/><path class="cls-1" d="M201.17,100.07V86.81H204v8.57l6.14-8.57H213v13.26h-2.82V91.18l-6.32,8.89Z"/><path class="cls-1" d="M220.75,100.07V86.81h7c2.52,0,3.81,1.61,3.81,3.38a2.94,2.94,0,0,1-2.28,3,3.21,3.21,0,0,1,2.54,3.26,3.49,3.49,0,0,1-3.85,3.58Zm7.91-9.38a1.42,1.42,0,0,0-1.55-1.45h-3.54v2.88h3.54A1.41,1.41,0,0,0,228.66,90.69Zm.26,5.4a1.55,1.55,0,0,0-1.71-1.55h-3.64v3.08h3.64C228.29,97.62,228.92,97.05,228.92,96.09Z"/><path class="cls-1" d="M238.39,93.45a6.74,6.74,0,0,1,7.06-6.86A6.06,6.06,0,0,1,251,89.83L248.57,91a3.59,3.59,0,0,0-3.12-1.93,4.35,4.35,0,0,0,0,8.7,3.56,3.56,0,0,0,3.12-1.92L251,97.05a6.09,6.09,0,0,1-5.54,3.26A6.74,6.74,0,0,1,238.39,93.45Z"/><path class="cls-1" d="M252.06,93.45a6.93,6.93,0,1,1,6.91,6.86A6.66,6.66,0,0,1,252.06,93.45Zm10.95,0a4,4,0,0,0-4-4.35c-2.44,0-4,1.87-4,4.35s1.57,4.35,4,4.35A4,4,0,0,0,263,93.45Z"/><path class="cls-1" d="M270.41,90.53a2.11,2.11,0,0,0,2.42,2.4,7.12,7.12,0,0,0,2.53-.43V86.81h2.82v13.26h-2.82V95a10,10,0,0,1-2.86.44c-3.38,0-4.93-2-4.93-4.89V86.81h2.84Z"/><path class="cls-1" d="M280.81,100.07V86.81h2.82v8.57l6.14-8.57h2.9v13.26h-2.82V91.18l-6.32,8.89Z"/></svg>